# xmcd CD database file
#
# Track frame offsets:
#	150
#	31520
#	59730
#	91012
#
# Disc length: 1484 seconds
#
# Revision: 0
# Processed by: cddbd v1.5.1PL0 Copyright (c) Steve Scherf et al.
# Submitted via: CDex 1.51
#
DISCID=2505ca04
DTITLE=BOSSANOVA CASSANOVA - 花
DYEAR=2000
DGENRE=JPop
TTITLE0=花
TTITLE1=月と星
TTITLE2=花（カラオケ）
TTITLE3=僕ノ彼女ハ左キキ
EXTD=YEAR: 2000
EXTT0=
EXTT1=
EXTT2=
EXTT3=
PLAYORDER=
